# xmcd
#
# Track frame offsets:
#  150
#  11617
#  25791
#  38219
#  51366
#  66252
#  76265
#  89652
#  102798
#  115254
#  130854
#  144106
#
# Disc length: 2108 seconds
#
# Revision: 0
# Processed by: cddbd v1.5.2PL0 Copyright (c) Steve Scherf et al.
# Submitted via: AltoMP3_Maker 3.0
#
DISCID=98083a0c
DTITLE=High Atmosphere - Run To The Rock
DYEAR=1900
DGENRE=
TTITLE0=Little Black Train
TTITLE1=This Road
TTITLE2=Run To The ROck
TTITLE3=Windfall Way
TTITLE4=Coal Tattoo
TTITLE5=Lord Dont Leave Me Here
TTITLE6=Henrys Store
TTITLE7=Carry Me
TTITLE8=Brandons Breakdown
TTITLE9=Wont You Come And Sing For Me
TTITLE10=Caney Run
TTITLE11=Cant Wait To See
EXTD=
EXTT0=
EXTT1=
EXTT2=
EXTT3=
EXTT4=
EXTT5=
EXTT6=
EXTT7=
EXTT8=
EXTT9=
EXTT10=
EXTT11=
PLAYORDER=
